HIERARCHY
ROOT joint_Root
{
	OFFSET 0.0 0.0 0.0
	CHANNELS 6 Xposition Yposition Zposition Zrotation Xrotation Yrotation 
	JOINT Hips
	{
		OFFSET -0.726466 93.3139 -2.00062
		CHANNELS 6 Xposition Yposition Zposition Zrotation Xrotation Yrotation 
		JOINT Spine
		{
			OFFSET 15.7357 0.0 0.0
			CHANNELS 6 Xposition Yposition Zposition Zrotation Xrotation Yrotation 
			JOINT Chest
			{
				OFFSET 8.98455 -0.406207 0.0
				CHANNELS 6 Xposition Yposition Zposition Zrotation Xrotation Yrotation 
				JOINT Neck
				{
					OFFSET 16.3773 0.0 0.0
					CHANNELS 6 Xposition Yposition Zposition Zrotation Xrotation Yrotation 
					JOINT Head
					{
						OFFSET 6.45672 0.0 0.0
						CHANNELS 6 Xposition Yposition Zposition Zrotation Xrotation Yrotation 
						End Site
						{
							OFFSET 0.0 0.0 0.0
						}
					}
				}
				JOINT Shoulder_L
				{
					OFFSET 12.9942 -0.242716 4.98039
					CHANNELS 6 Xposition Yposition Zposition Zrotation Xrotation Yrotation 
					JOINT UpperArm_L
					{
						OFFSET 5.34809 0.0 0.0
						CHANNELS 6 Xposition Yposition Zposition Zrotation Xrotation Yrotation 
						JOINT LowerArm_L
						{
							OFFSET 24.3286 1.87007e-05 0.0
							CHANNELS 6 Xposition Yposition Zposition Zrotation Xrotation Yrotation 
							JOINT Hand_L
							{
								OFFSET 22.2916 0.0 0.0
								CHANNELS 6 Xposition Yposition Zposition Zrotation Xrotation Yrotation 
								End Site
								{
									OFFSET 0.0 0.0 0.0
								}
							}
						}
					}
				}
				JOINT Shoulder_R
				{
					OFFSET 12.9945 -0.242716 -4.98039
					CHANNELS 6 Xposition Yposition Zposition Zrotation Xrotation Yrotation 
					JOINT UpperArm_R
					{
						OFFSET -5.34813 0.0 0.0
						CHANNELS 6 Xposition Yposition Zposition Zrotation Xrotation Yrotation 
						JOINT LowerArm_R
						{
							OFFSET -24.3289 0.000322201 0.0
							CHANNELS 6 Xposition Yposition Zposition Zrotation Xrotation Yrotation 
							JOINT Hand_R
							{
								OFFSET -22.2915 -0.000108084 0.0
								CHANNELS 6 Xposition Yposition Zposition Zrotation Xrotation Yrotation 
								End Site
								{
									OFFSET 0.0 0.0 0.0
								}
							}
						}
					}
				}
			}
		}
		JOINT UpperLeg_L
		{
			OFFSET -2.19248 -6.46944 0.0
			CHANNELS 6 Xposition Yposition Zposition Zrotation Xrotation Yrotation 
			JOINT LowerLeg_L
			{
				OFFSET 39.0811 0.0 -1.23785e-05
				CHANNELS 6 Xposition Yposition Zposition Zrotation Xrotation Yrotation 
				JOINT Foot_L
				{
					OFFSET 40.9854 0.0 -1.26872e-05
					CHANNELS 6 Xposition Yposition Zposition Zrotation Xrotation Yrotation 
					JOINT Toes_L
					{
						OFFSET 11.7543 0.0 0.0
						CHANNELS 6 Xposition Yposition Zposition Zrotation Xrotation Yrotation 
						End Site
						{
							OFFSET 0.0 0.0 0.0
						}
					}
				}
			}
		}
		JOINT UpperLeg_R
		{
			OFFSET -2.19251 6.46944 0.0
			CHANNELS 6 Xposition Yposition Zposition Zrotation Xrotation Yrotation 
			JOINT LowerLeg_R
			{
				OFFSET -39.0811 -0.00228153 -0.0401928
				CHANNELS 6 Xposition Yposition Zposition Zrotation Xrotation Yrotation 
				JOINT Foot_R
				{
					OFFSET -40.9854 0.0 0.0
					CHANNELS 6 Xposition Yposition Zposition Zrotation Xrotation Yrotation 
					JOINT Toes_R
					{
						OFFSET -11.7543 0.0 0.0
						CHANNELS 6 Xposition Yposition Zposition Zrotation Xrotation Yrotation 
						End Site
						{
							OFFSET 0.0 0.0 0.0
						}
					}
				}
			}
		}
	}
}
MOTION
Frames:	5
Frame Time:	0.0333333
0.000000 0.000000 0.000000 0.000000 0.000000 -0.000000 -0.498809 92.369700 -1.616650 88.113200 0.064958 5.180850 15.735700 0.000005 -0.000001 83.590300 85.313800 -82.964400 8.984550 -0.406207 -0.000000 1.554200 -1.079670 1.265350 16.377300 -0.000001 -0.000001 3.015000 -2.889570 0.992225 6.456720 -0.000001 -0.000000 6.467810 -3.382920 -0.769866 12.994200 -0.242716 4.980390 -89.778800 -0.691593 -72.260500 5.348090 -0.000007 -0.000001 -70.460500 39.423700 -12.212500 24.328600 0.000019 0.000005 1.306790 3.191620 -22.279600 22.291600 -0.000001 0.000005 5.408650 5.478480 -5.690170 12.994500 -0.242716 -4.980390 88.256100 5.676750 -72.892000 -5.348130 -0.000001 -0.000004 -66.252300 36.718400 -15.917400 -24.328900 0.000322 -0.000009 2.746810 8.736860 -17.535100 -22.291500 -0.000108 -0.000004 7.703880 5.347390 -1.298300 -2.192480 -6.469440 -0.000000 -175.428000 -6.967450 -2.312010 39.081100 -0.000007 -0.000012 -0.101780 0.240690 22.921900 40.985400 -0.000006 -0.000013 0.220559 5.062330 -65.687900 11.754300 -0.000000 0.000003 -0.000044 -0.000505 -16.597200 -2.192510 6.469440 -0.000001 179.588000 14.548700 -179.580000 -39.081100 -0.002282 -0.040193 -0.045996 0.139384 19.485500 -40.985400 0.000008 0.000006 3.061720 7.484180 -65.146800 -11.754300 -0.000006 -0.000006 -0.009010 -0.096087 -20.486900
0.000000 0.000000 0.000000 0.000000 0.000000 -0.000000 -0.508433 92.365100 -1.635110 88.135000 0.053009 5.179750 15.735700 0.000005 -0.000001 83.518600 85.285200 -82.960400 8.984550 -0.406207 -0.000000 1.609200 -1.093820 1.130850 16.377300 -0.000001 -0.000001 2.983680 -2.849640 1.073090 6.456720 -0.000001 -0.000000 6.497190 -3.347290 -0.537418 12.994200 -0.242716 4.980390 -89.722200 -0.869267 -72.277400 5.348090 -0.000007 -0.000001 -70.599000 39.220200 -12.264100 24.328600 0.000019 0.000005 1.322450 3.233330 -22.258400 22.291600 -0.000001 0.000005 5.340530 5.478270 -5.682420 12.994500 -0.242716 -4.980390 88.174500 5.959840 -72.935800 -5.348130 -0.000001 -0.000004 -66.264500 33.259500 -15.817200 -24.328900 0.000322 -0.000009 3.421200 9.451420 -20.009400 -22.291500 -0.000108 -0.000004 4.276790 5.342340 -1.146610 -2.192480 -6.469440 -0.000000 -175.448000 -6.977410 -2.343810 39.081100 -0.000007 -0.000012 -0.101292 0.239220 22.949100 40.985400 -0.000006 -0.000013 0.221664 5.071190 -65.683600 11.754300 -0.000000 0.000003 -0.000039 -0.000457 -16.595400 -2.192510 6.469440 -0.000001 179.565000 14.504500 -179.622000 -39.081100 -0.002282 -0.040193 -0.049377 0.148499 19.538600 -40.985400 0.000008 0.000006 2.983890 7.470340 -65.146200 -11.754300 -0.000006 -0.000006 -0.009146 -0.097141 -20.530000
0.000000 0.000000 0.000000 0.000000 0.000000 -0.000000 -0.525299 92.375400 -1.702510 88.145200 -0.043358 5.122460 15.735700 0.000005 -0.000001 82.904800 85.270500 -82.421100 8.984550 -0.406207 -0.000000 1.626210 -1.193630 0.983530 16.377300 -0.000001 -0.000001 3.002430 -2.791770 1.244220 6.456720 -0.000001 -0.000000 6.602360 -3.171480 -0.293061 12.994200 -0.242716 4.980390 -89.659600 -1.066400 -72.292800 5.348090 -0.000007 -0.000001 -70.834000 38.951900 -12.155300 24.328600 0.000019 0.000005 1.320990 3.237980 -22.207300 22.291600 -0.000001 0.000005 5.339420 5.479400 -5.725550 12.994500 -0.242716 -4.980390 88.031800 6.337880 -72.708600 -5.348130 -0.000001 -0.000004 -65.850200 27.876400 -16.372800 -24.328900 0.000322 -0.000009 3.397320 7.300150 -25.060500 -22.291500 -0.000108 -0.000004 3.578270 5.347700 -1.305060 -2.192480 -6.469440 -0.000000 -175.449000 -7.103930 -2.405230 39.081100 -0.000007 -0.000012 -0.100416 0.237784 22.894400 40.985400 -0.000006 -0.000013 0.212342 5.078560 -65.615500 11.754300 -0.000000 0.000003 -0.000045 -0.000512 -16.597500 -2.192510 6.469440 -0.000001 179.596000 14.408800 -179.721000 -39.081100 -0.002282 -0.040193 -0.050713 0.152627 19.495800 -40.985400 0.000008 0.000006 2.908730 7.497320 -65.056000 -11.754300 -0.000006 -0.000006 -0.008999 -0.095998 -20.483300
0.000000 0.000000 0.000000 0.000000 0.000000 -0.000000 -0.535100 92.383900 -1.786580 88.113400 -0.206789 5.097610 15.735700 0.000005 -0.000001 81.680200 85.255600 -81.252100 8.984550 -0.406207 -0.000000 1.628850 -1.395200 0.875280 16.377300 -0.000001 -0.000001 3.179760 -2.741290 1.403670 6.456720 -0.000001 -0.000000 6.679850 -2.934040 -0.095454 12.994200 -0.242716 4.980390 -89.608300 -1.226000 -72.277400 5.348090 -0.000007 -0.000001 -71.059600 38.819800 -11.913700 24.328600 0.000019 0.000005 1.246950 3.058940 -22.189700 22.291600 -0.000001 0.000005 5.176700 5.475010 -5.558580 12.994500 -0.242716 -4.980390 87.929300 6.456850 -72.176900 -5.348130 -0.000001 -0.000004 -64.626300 22.888700 -18.154400 -24.328900 0.000322 -0.000009 3.306660 4.943770 -33.852500 -22.291500 -0.000108 -0.000004 8.490350 5.382600 -2.359330 -2.192480 -6.469440 -0.000000 -175.405000 -7.199660 -2.453510 39.081100 -0.000007 -0.000012 -0.100602 0.238352 22.883400 40.985400 -0.000006 -0.000013 0.193760 5.047630 -65.569200 11.754300 -0.000000 0.000003 -0.000039 -0.000456 -16.595300 -2.192510 6.469440 -0.000001 179.642000 14.368900 -179.802000 -39.081100 -0.002282 -0.040193 -0.051584 0.155429 19.456300 -40.985400 0.000008 0.000006 2.890820 7.642350 -64.959400 -11.754300 -0.000006 -0.000006 -0.009048 -0.096377 -20.498800
0.000000 0.000000 0.000000 0.000000 0.000000 -0.000000 -0.515928 92.390000 -1.890090 88.040600 -0.552526 5.063280 15.735700 0.000005 -0.000001 80.964900 85.249700 -80.587200 8.984550 -0.406207 -0.000000 1.622320 -1.511390 0.776076 16.377300 -0.000001 -0.000001 3.328770 -2.763930 1.666110 6.456720 -0.000001 -0.000000 6.893940 -2.742580 -0.047226 12.994200 -0.242716 4.980390 -89.579100 -1.322220 -72.340300 5.348090 -0.000007 -0.000001 -71.066500 38.943500 -11.718300 24.328600 0.000019 0.000005 1.258130 3.097090 -22.120900 22.291600 -0.000001 0.000005 5.245690 5.477410 -5.649750 12.994500 -0.242716 -4.980390 87.927900 6.303740 -71.761800 -5.348130 -0.000001 -0.000004 -63.300900 17.598800 -21.109900 -24.328900 0.000322 -0.000009 4.559930 4.493870 -45.499900 -22.291500 -0.000108 -0.000004 14.250100 5.409710 -3.252800 -2.192480 -6.469440 -0.000000 -175.341000 -7.391390 -2.553390 39.081100 -0.000007 -0.000012 -0.101774 0.240439 22.942200 40.985400 -0.000006 -0.000013 0.173887 4.886860 -65.538800 11.754300 -0.000000 0.000003 -0.000047 -0.000534 -16.598300 -2.192510 6.469440 -0.000001 179.740000 14.166100 -179.915000 -39.081100 -0.002282 -0.040193 -0.051367 0.155222 19.409000 -40.985400 0.000008 0.000006 2.818560 7.781450 -64.824000 -11.754300 -0.000006 -0.000006 -0.009133 -0.097041 -20.525900
